<?xml version="1.0" encoding="utf-8"?>
<!-- Generator: Adobe Illustrator 15.1.0, SVG Export Plug-In . SVG Version: 6.00 Build 0)  -->
<!DOCTYPE svg PUBLIC "-//W3C//DTD SVG 1.1//EN" "http://www.w3.org/Graphics/SVG/1.1/DTD/svg11.dtd">
<svg version="1.1" id="圖層_1" xmlns="http://www.w3.org/2000/svg" xmlns:xlink="http://www.w3.org/1999/xlink" x="0px" y="0px"
	 width="136.333px" height="64px" viewBox="0 0 136.333 64" enable-background="new 0 0 136.333 64" xml:space="preserve">
<g>
	<path fill="#4464A6" d="M16.883,17.515c1.504-0.296,2.837-0.262,3.999,0.103c0.547,0.183,0.991,0.456,1.333,0.82
		c0.364,0.547,0.763,0.969,1.196,1.265c0.501,0.524,0.535,1.162,0.103,1.914c-0.319,0.296-0.559,0.752-0.718,1.367
		c-0.319,1.299-0.809,2.666-1.47,4.102c-0.615,1.299-1.23,2.199-1.846,2.7c-0.273,0.205-0.444,0.41-0.513,0.615
		c-0.41,0.57-0.877,0.741-1.401,0.513c-0.273-0.159-0.376-0.011-0.308,0.444c0,0.251-0.034,0.456-0.103,0.615
		c-0.046,0.342,0.137,0.467,0.547,0.376c0.433-0.068,0.843-0.182,1.23-0.342c1.367-0.615,2.734-0.569,4.102,0.137
		c0.501,0.228,0.797,0.49,0.889,0.786c0.205,0.456,0.011,0.877-0.581,1.265c-0.137,0.068-0.251,0.103-0.342,0.103
		c-1.299-0.205-2.757-0.137-4.375,0.205l-1.094,0.205c-0.365,0.068-0.547,0.297-0.547,0.684c-0.046,0.365-0.068,0.718-0.068,1.06
		c0,0.41,0.205,0.547,0.615,0.41c1.094-0.41,1.994-0.569,2.7-0.479c0.387,0.022,0.763,0.159,1.128,0.41
		c0.296,0.273,0.398,0.569,0.308,0.889c-0.068,0.501-0.376,0.935-0.923,1.299c-0.296,0.159-0.752,0.331-1.367,0.513
		c-0.684,0.229-1.379,0.502-2.085,0.82c-0.365,0.183-0.559,0.502-0.581,0.957v0.513c0,0.364,0.228,0.535,0.684,0.513l2.734-0.273
		c1.504-0.615,2.837-0.604,3.999,0.034c1.002,0.569,1.914,0.979,2.734,1.23c0.501,0.114,0.945,0.376,1.333,0.786
		c0.41,0.479,0.592,0.934,0.547,1.367c-0.16,0.592-0.524,0.923-1.094,0.991c-0.661,0.022-1.595-0.273-2.803-0.889
		c-0.729-0.479-1.641-0.866-2.734-1.162c-0.547-0.183-1.561-0.194-3.042-0.034c-4.307,0.41-7.953,1.025-10.938,1.846
		c-1.458,0.501-2.871,0.49-4.238-0.034c-0.524-0.137-1.094-0.399-1.709-0.786c-0.251-0.183-0.354-0.365-0.308-0.547
		c0.159-0.183,0.41-0.308,0.752-0.376c0.911-0.137,1.823-0.285,2.734-0.444c2.962-0.593,5.742-1.037,8.34-1.333
		c0.387-0.046,0.581-0.228,0.581-0.547c0.045-0.319-0.034-0.421-0.239-0.308c-0.183,0.068-0.342,0.113-0.479,0.137
		c-0.41,0.113-0.775,0.113-1.094,0c-0.183-0.228-0.091-0.535,0.273-0.923c0.182-0.205,0.433-0.398,0.752-0.581
		c0.296-0.159,0.228-0.217-0.205-0.171c-1.618,0.228-3.099-0.171-4.443-1.196c-0.296-0.318-0.672-0.342-1.128-0.068
		c-0.388,0.251-0.798,0.535-1.23,0.854c-0.228,0.159-0.456,0.285-0.684,0.376C5.512,40.381,5.33,40.37,5.262,40.21
		c0-0.41,0.33-1.128,0.991-2.153l1.162-1.333c0.729-0.935,1.321-1.846,1.777-2.734c0.319-0.569,0.456-1.025,0.41-1.367l-0.273-1.367
		c-0.046-0.364,0.182-0.832,0.684-1.401c0.319-0.364,0.319-0.774,0-1.23c-0.365-0.524-0.684-0.866-0.957-1.025
		c-0.57-0.456-0.775-1.002-0.615-1.641c0.182-0.387,0.103-1.071-0.239-2.051c-0.046-0.205-0.08-0.398-0.103-0.581
		c-0.046-0.456,0.103-1.094,0.444-1.914c0.205-0.364,0.216-0.592,0.034-0.684c-0.456-0.296-0.41-0.558,0.137-0.786
		c0.364-0.137,0.82-0.273,1.367-0.41s1.002-0.296,1.367-0.479C13.431,18.324,15.242,17.812,16.883,17.515z M13.704,35.63
		l-0.205,0.068c-0.684,0.228-1.276,0.285-1.777,0.171c-0.365-0.113-0.718,0.057-1.06,0.513c-0.388,0.479-0.832,0.969-1.333,1.47
		c-0.456,0.365-0.422,0.524,0.103,0.479c0.547,0.023,1.116,0.092,1.709,0.205c0.547,0.046,1.447-0.137,2.7-0.547
		c0.364-0.113,0.547-0.354,0.547-0.718v-1.299C14.388,35.584,14.16,35.471,13.704,35.63z M19.583,19.532
		c-0.638-0.091-1.424-0.045-2.358,0.137c-1.23,0.342-2.826,0.889-4.785,1.641c-0.798,0.296-1.641,0.262-2.529-0.103
		c-0.365-0.091-0.479,0.091-0.342,0.547c0.091,0.388,0.159,0.786,0.205,1.196c0.182,1.208,0.797,2.461,1.846,3.76
		c0.433,0.456,0.877,0.604,1.333,0.444c1.344-0.524,2.7-0.843,4.067-0.957c0.684,0.068,1.208,0.296,1.572,0.684
		c0.091,0.16,0.262,0.012,0.513-0.444c0.797-1.846,1.242-3.816,1.333-5.913c0.022-0.273-0.012-0.501-0.103-0.684
		C20.13,19.657,19.879,19.555,19.583,19.532z M15.481,22.129c0.911-0.547,1.823-0.684,2.734-0.41
		c1.094,0.296,1.299,0.832,0.615,1.606c-1.367,0.57-2.734,1.322-4.102,2.256c-0.091,0.091-0.285,0.16-0.581,0.205
		c-0.501,0.114-0.741-0.068-0.718-0.547c0.045-0.182-0.114-0.273-0.479-0.273c-0.843,0.046-1.675-0.216-2.495-0.786
		c-0.183-0.091-0.285-0.239-0.308-0.444c0.022-0.045,0.25-0.182,0.684-0.41c0.159-0.068,0.342-0.114,0.547-0.137
		C12.815,23.075,14.183,22.722,15.481,22.129z M13.533,30.196c-0.319-0.319-0.559-0.398-0.718-0.239
		c-0.456,0.365-0.957,0.433-1.504,0.205c-0.251-0.159-0.376-0.114-0.376,0.137c0,0.251,0.08,0.49,0.239,0.718
		c0.661,0.638,0.991,1.311,0.991,2.017c-0.023,0.251,0.159,0.354,0.547,0.308c0.387-0.091,0.774-0.159,1.162-0.205
		c0.364-0.068,0.547-0.33,0.547-0.786C14.444,31.643,14.148,30.925,13.533,30.196z M15.311,28.794
		c-0.433,0.046-0.615,0.091-0.547,0.137c0.296,0.251,0.604,0.433,0.923,0.547c0.41,0.16,0.444,0.08,0.103-0.239
		C15.538,28.943,15.379,28.794,15.311,28.794z"/>
	<path fill="#4464A6" d="M48.123,19.087c1.549-0.752,2.746-1.105,3.589-1.06c1.367,0.046,2.769,0.854,4.204,2.427
		c0.752,0.752,0.786,1.55,0.103,2.393c-0.137,0.365-0.239,0.786-0.308,1.265c-0.205,8.363,0.125,15.278,0.991,20.747
		c0.022,0.342,0.103,0.684,0.239,1.025c0.068,0.228,0.103,0.456,0.103,0.684c0.045,0.524-0.251,0.889-0.889,1.094
		c-0.638,0.137-1.322-0.114-2.051-0.752c-2.416-2.302-4.125-4.192-5.127-5.674c-0.342-0.501-0.422-0.854-0.239-1.06
		c0.228-0.022,0.444,0.023,0.649,0.137c0.661,0.297,1.572,0.809,2.734,1.538l1.094,0.615c0.319,0.183,0.467,0.068,0.444-0.342
		c-0.251-2.849-0.388-5.241-0.41-7.178c-0.023-0.364-0.262-0.444-0.718-0.239c-0.456,0.046-0.912,0.114-1.367,0.205
		c-1.071,0.319-2.188,0.513-3.35,0.581c-0.365,0-0.581,0.228-0.649,0.684l-0.171,1.367c-0.205,1.8-0.854,3.623-1.948,5.469
		c-1.094,1.458-2.393,2.529-3.896,3.213c-0.433,0.228-1.06,0.479-1.88,0.752c-0.456,0.068-0.718,0.079-0.786,0.034
		c-0.046-0.068,0.091-0.319,0.41-0.752c0.479-0.502,0.979-0.98,1.504-1.436c0.866-0.752,1.72-1.697,2.563-2.837
		c0.569-0.889,1.002-1.8,1.299-2.734c0.661-2.734,0.957-6.585,0.889-11.553l-0.068-0.444c-0.068-0.364-0.239-0.444-0.513-0.239
		c-0.866,0.41-1.572,0.068-2.119-1.025c-0.296-0.615-0.205-1.299,0.273-2.051c0.364-0.41,0.684-0.968,0.957-1.675
		c0.022-0.228,0.205-0.41,0.547-0.547c0.228-0.091,0.41-0.08,0.547,0.034c0.319,0.251,0.467,0.501,0.444,0.752l-0.068,1.299
		c-0.023,0.365,0.148,0.536,0.513,0.513c0.729-0.045,1.355,0.171,1.88,0.649c0.729,0.501,0.877,1.083,0.444,1.743
		c-0.183,0.273-0.046,0.365,0.41,0.273c0.638-0.159,1.481-0.535,2.529-1.128c0.547-0.296,1.094-0.376,1.641-0.239
		c0.364,0.114,0.547-0.011,0.547-0.376c-0.023-1.299-0.034-2.598-0.034-3.896c-0.046-0.592-0.331-0.979-0.854-1.162
		c-0.707-0.022-1.618,0.376-2.734,1.196c-1.048,0.912-2.473,0.718-4.272-0.581c-0.41-0.296-0.354-0.513,0.171-0.649
		C46.368,19.988,47.28,19.634,48.123,19.087z M53.113,28.35c0-0.342-0.183-0.376-0.547-0.103l-4.443,2.632
		c-0.388,0.228-0.581,0.57-0.581,1.025l-0.068,1.025c-0.023,0.365,0.193,0.467,0.649,0.308c0.661-0.205,1.526-0.558,2.598-1.06
		c0.547-0.114,1.173-0.08,1.88,0.103c0.387,0.183,0.581,0.08,0.581-0.308C53.136,30.766,53.113,29.558,53.113,28.35z M47.918,29.17
		c-0.205,0-0.308,0.217-0.308,0.649v0.171c-0.023,0.41,0.068,0.376,0.273-0.103C48.111,29.433,48.123,29.193,47.918,29.17z"/>
	<path fill="#4464A6" d="M83.226,23.292c0.592-0.273,1.287-0.285,2.085-0.034c0.82,0.137,1.15,0.615,0.991,1.436
		c0.022,1.071-0.012,2.074-0.103,3.008c-0.022,0.365,0.193,0.524,0.649,0.479c0.865-0.137,1.721-0.262,2.563-0.376
		c0.456-0.114,0.911-0.25,1.367-0.41c0.957-0.182,1.868-0.022,2.734,0.479c0.889,0.57,1.788,0.969,2.7,1.196
		c0.433,0.16,0.832,0.547,1.196,1.162c0.228,0.456,0.183,0.923-0.137,1.401c-0.41,0.388-1.025,0.422-1.846,0.103
		c-0.547-0.182-1.003-0.387-1.367-0.615c-1.025-0.569-1.937-0.945-2.734-1.128c-0.979-0.137-2.427-0.034-4.341,0.308
		c-0.365,0.046-0.365,0.228,0,0.547c0.318,0.342,0.581,0.741,0.786,1.196c1.982,3.623,3.589,6.357,4.819,8.203
		c0.592,0.935,1.447,1.572,2.563,1.914c0.456,0.137,0.911,0.239,1.367,0.308c1.55,0.205,3.145,0.945,4.785,2.222
		c0.524,0.387,0.82,0.718,0.889,0.991c0,0.068-0.022,0.125-0.068,0.171c-0.205,0.137-0.468,0.182-0.786,0.137
		c-2.006-0.319-3.828-0.57-5.469-0.752c-1.049-0.137-1.96-0.456-2.734-0.957c-0.388-0.183-0.82-0.57-1.299-1.162
		c-1.596-2.21-3.566-5.4-5.913-9.57c-0.251-0.479-0.41-0.524-0.479-0.137c-0.364,2.302-1.083,4.535-2.153,6.699
		c-0.707,1.596-1.902,2.848-3.589,3.76c-1.937,0.934-3.908,1.321-5.913,1.162c-0.57-0.023-0.923-0.148-1.06-0.376
		c0-0.046,0.193-0.251,0.581-0.615c0.41-0.251,0.809-0.456,1.196-0.615c2.347-1.048,4.261-2.335,5.742-3.862
		c1.937-2.552,3.019-5.229,3.247-8.032c0.045-0.364-0.171-0.479-0.649-0.342c-1.687,0.433-3.271,0.98-4.751,1.641
		c-0.729,0.433-1.687,0.467-2.871,0.103c-0.638-0.137-1.538-0.513-2.7-1.128c-0.433-0.205-0.388-0.353,0.137-0.444
		c1.618-0.228,3.44-0.672,5.469-1.333c1.96-0.569,3.669-0.968,5.127-1.196c0.364-0.091,0.558-0.364,0.581-0.82
		c0.045-0.797,0.057-1.606,0.034-2.427c0.068-0.364,0-0.661-0.205-0.889c-0.183-0.159-0.524-0.342-1.025-0.547
		c-0.501-0.228-0.524-0.433-0.068-0.615L83.226,23.292z M88.387,19.327c0.593-0.296,1.185-0.308,1.777-0.034
		c0.433,0.228,0.889,0.399,1.367,0.513c0.752,0.114,1.196,0.49,1.333,1.128c0.045,0.342,0,0.581-0.137,0.718
		c-0.434,0.479-0.889,0.672-1.367,0.581c-1.049-0.25-2.017-0.319-2.905-0.205c-2.188,0.228-4.466,0.843-6.836,1.846
		c-0.501,0.273-0.957,0.444-1.367,0.513c-0.979,0.023-2.21-0.479-3.691-1.504c-0.433-0.25-0.365-0.398,0.205-0.444
		c1.595,0,2.962-0.239,4.102-0.718c1.777-0.638,4.056-1.31,6.836-2.017C87.931,19.612,88.159,19.486,88.387,19.327z"/>
	<path fill="#4464A6" d="M124.686,31.734c0.569-0.091,1.082-0.045,1.538,0.137c0.979,0.319,1.355,0.877,1.128,1.675
		c-0.137,0.388-0.399,0.695-0.786,0.923c-1.527,0.501-3.225,1.162-5.093,1.982c-0.364,0.159-0.388,0.422-0.068,0.786
		c0.889,0.935,1.06,1.926,0.513,2.974c-0.183,0.364-0.046,0.524,0.41,0.479l2.529-0.273c0.455-0.114,0.911-0.251,1.367-0.41
		c0.934-0.251,1.868-0.125,2.803,0.376c0.934,0.57,1.846,0.991,2.734,1.265c0.865,0.205,1.504,0.774,1.914,1.709
		c0.068,0.41-0.023,0.752-0.273,1.025c-0.388,0.41-0.889,0.524-1.504,0.342c-0.82-0.183-1.732-0.581-2.734-1.196
		c-1.391-0.82-2.826-1.117-4.307-0.889c-4.626,0.547-8.271,1.219-10.938,2.017c-1.117,0.501-2.017,0.729-2.7,0.684
		c-1.345-0.137-2.483-0.444-3.418-0.923c-0.296-0.092-0.513-0.273-0.649-0.547c-0.023-0.183,0.125-0.342,0.444-0.479
		c0.456-0.16,0.911-0.285,1.367-0.376c3.327-0.774,6.46-1.39,9.399-1.846c0.41-0.046,0.66-0.296,0.752-0.752
		c0.342-1.276,0.33-2.256-0.034-2.939c-0.251-0.296-0.217-0.74,0.103-1.333c0.182-0.205,0.068-0.273-0.342-0.205
		c-1.459,0.297-2.883,0.319-4.272,0.068c-0.593-0.045-1.39-0.501-2.393-1.367c-0.251-0.205-0.263-0.376-0.034-0.513
		c0.455-0.091,1.15-0.045,2.085,0.137c0.547,0.068,1.048,0.046,1.504-0.068c2.233-0.501,4.968-1.276,8.203-2.324
		C124.161,31.802,124.412,31.757,124.686,31.734z M114.876,16.319c0.045-0.068,0.308-0.08,0.786-0.034
		c0.979,0.273,1.88,0.593,2.7,0.957c1.275,0.593,2.347,1.288,3.213,2.085c0.387,0.365,0.786,0.501,1.196,0.41
		c2.097-0.387,3.953-0.33,5.571,0.171c1.162,0.41,2.063,0.98,2.7,1.709c0.273,0.638,0.672,1.208,1.196,1.709
		c0.479,0.524,0.49,1.14,0.034,1.846c-0.319,0.365-0.774,0.388-1.367,0.068c-0.684-0.273-1.595-0.114-2.734,0.479
		c-1.436,0.524-2.985,0.82-4.648,0.889c-0.364-0.022-0.593,0.137-0.684,0.479c-0.068,0.342,0.125,0.49,0.581,0.444
		c1.299-0.182,2.62-0.535,3.965-1.06c1.07-0.592,1.982-0.695,2.734-0.308c0.752,0.547,0.934,1.094,0.547,1.641
		c-0.183,0.205-0.388,0.365-0.615,0.479c-2.028,0.752-4.307,1.698-6.836,2.837c-0.456,0.296-0.945,0.319-1.47,0.068
		c-0.205-0.228-0.159-0.535,0.137-0.923c0.251-0.25,0.159-0.387-0.273-0.41c-0.615-0.068-1.071-0.479-1.367-1.23
		c-0.068-0.319-0.058-0.774,0.034-1.367c0.045-0.342,0.148-0.797,0.308-1.367c0.046-0.205,0.022-0.433-0.068-0.684
		c-0.41-0.547-0.706-0.991-0.889-1.333c-0.114-0.296-0.103-0.49,0.034-0.581c0.318-0.091,0.809,0.012,1.47,0.308
		c0.205,0.114,0.433,0.171,0.684,0.171c0.866,0,1.378,0.376,1.538,1.128c0,0.251,0.193,0.273,0.581,0.068
		c0.684-0.364,1.55-0.763,2.598-1.196c0.501-0.25,1.185-0.672,2.051-1.265c0.364-0.25,0.319-0.421-0.137-0.513
		c-1.413-0.205-2.985-0.216-4.717-0.034c-0.364,0.046-0.559,0.148-0.581,0.308c-0.068,0.547-0.365,0.877-0.889,0.991
		c-0.456,0.137-0.945,0.046-1.47-0.273c-0.41-0.296-0.82-0.387-1.23-0.273c-1.185,0.319-2.529,0.843-4.033,1.572
		c-0.388,0.183-0.991,0.183-1.812,0c-0.229-0.114-0.661-0.045-1.299,0.205c-0.365,0.023-0.524,0.114-0.479,0.273
		c0.113,0.183,0.057,0.501-0.171,0.957c-0.183,0.661-0.058,1.299,0.376,1.914c0.296,0.433,0.422,0.889,0.376,1.367
		c-0.022,0.183-0.148,0.41-0.376,0.684c-0.319,0.296-0.661,0.422-1.025,0.376c-0.684-0.022-1.15-0.398-1.401-1.128
		c-0.137-0.456-0.251-0.911-0.342-1.367c-0.137-0.456-0.148-1.037-0.034-1.743c0.137-0.342,0.398-0.661,0.786-0.957
		c0.205-0.228,0.353-0.456,0.444-0.684l0.376-1.367c0.114-0.456,0.239-0.456,0.376,0l0.205,0.649
		c0.113,0.365,0.318,0.319,0.615-0.137c0.387-0.661,1.082-1.116,2.085-1.367c1.253-0.456,2.563-0.866,3.931-1.23
		c0.364-0.091,0.398-0.364,0.103-0.82c-0.319-0.524-0.774-1.06-1.367-1.606c-0.501-0.387-1.015-0.809-1.538-1.265
		C115.035,16.604,114.876,16.365,114.876,16.319z M114.534,25.616c0.228-0.501,0.376-0.524,0.444-0.068l0.239,1.675
		c0.068,0.365,0.296,0.319,0.684-0.137c0.318-0.387,0.649-0.774,0.991-1.162c0.068-0.114,0.228-0.228,0.479-0.342
		c0.593-0.228,0.854,0.023,0.786,0.752c-0.046,0.228-0.137,0.456-0.273,0.684c-1.025,1.504-1.846,2.871-2.461,4.102
		c-0.251,0.638-0.627,0.969-1.128,0.991c-0.41-0.045-0.729-0.239-0.957-0.581c-0.501-0.752-0.536-1.743-0.103-2.974
		c0.159-0.501,0.559-1.413,1.196-2.734L114.534,25.616z"/>
</g>
<text transform="matrix(1 0 0 1 3.6138 59.9165)" fill="#9DC9E8" font-family="'HanWangWCL07'" font-size="8" letter-spacing="4">Star</text>
<g>
	<text transform="matrix(1 0 0 1 38.4478 59.7085)" fill="#9DC9E8" font-family="'HanWangWCL07'" font-size="8" letter-spacing="1">Moon</text>
</g>
<g>
	<text transform="matrix(1 0 0 1 72.1348 59.7085)" fill="#9DC9E8" font-family="'HanWangWCL07'" font-size="8" letter-spacing="4">Night</text>
</g>
<g>
	
		<text transform="matrix(1 0 0 1 107.6973 59.7085)" fill="#9DC9E8" font-family="'HanWangWCL07'" font-size="8" letter-spacing="8">Sky</text>
</g>
<path fill="#FFF100" d="M35.555,18.614c-3.846,0-6.963-3.117-6.963-6.961c0-3.635,2.785-6.617,6.338-6.934
	c-0.717-0.172-1.461-0.264-2.229-0.264c-5.256,0-9.514,4.26-9.514,9.514s4.258,9.514,9.514,9.514c5.254,0,9.514-4.26,9.514-9.514
	c0-0.09-0.002-0.18-0.006-0.27C41.334,16.545,38.688,18.614,35.555,18.614z"/>
<path fill-rule="evenodd" clip-rule="evenodd" fill="#EDD4A3" d="M39.27,1.731c0.602,1.056,1.168,2.146,1.74,3.232
	c1.281-0.092,2.518-0.227,3.758-0.359c0.041,0.104-0.162,0.22-0.277,0.332c-0.781,0.756-1.66,1.615-2.459,2.375
	c0.59,1.144,1.18,2.283,1.742,3.453c-1.148-0.547-2.285-1.105-3.426-1.657c-0.721,0.596-1.426,1.26-2.127,1.906
	c-0.225,0.206-0.434,0.441-0.691,0.58c0.182-1.218,0.383-2.417,0.553-3.646c-1.039-0.665-2.156-1.251-3.26-1.851
	c1.109-0.326,2.393-0.48,3.563-0.746C38.701,4.165,38.967,2.93,39.27,1.731z"/>
<path fill-rule="evenodd" clip-rule="evenodd" fill="#EDD4A3" d="M55.713,9.797c0.414,0.727,0.805,1.479,1.197,2.225
	c0.883-0.063,1.734-0.155,2.588-0.246c0.027,0.071-0.111,0.15-0.191,0.228c-0.537,0.521-1.143,1.112-1.693,1.636
	c0.406,0.787,0.813,1.572,1.199,2.378c-0.789-0.377-1.572-0.761-2.359-1.142c-0.494,0.41-0.98,0.867-1.463,1.313
	c-0.154,0.142-0.299,0.304-0.477,0.399c0.125-0.838,0.264-1.663,0.381-2.511c-0.715-0.457-1.484-0.861-2.244-1.274
	c0.764-0.224,1.646-0.33,2.453-0.513C55.32,11.473,55.504,10.623,55.713,9.797z"/>
<path fill-rule="evenodd" clip-rule="evenodd" fill="#EDD4A3" d="M70.1,6.299c0.285,0.498,0.551,1.014,0.822,1.525
	c0.604-0.043,1.188-0.106,1.773-0.17c0.02,0.05-0.076,0.104-0.131,0.157c-0.369,0.357-0.785,0.763-1.16,1.122
	c0.277,0.539,0.557,1.076,0.82,1.629c-0.541-0.258-1.078-0.521-1.617-0.782c-0.34,0.281-0.672,0.595-1.004,0.899
	c-0.105,0.098-0.203,0.209-0.326,0.274c0.086-0.575,0.182-1.141,0.262-1.722C69.049,8.919,68.521,8.643,68,8.36
	c0.525-0.154,1.129-0.227,1.682-0.352C69.832,7.448,69.957,6.866,70.1,6.299z"/>
<path fill-rule="evenodd" clip-rule="evenodd" fill="#EDD4A3" d="M83.305,11.995c0.162,0.284,0.314,0.578,0.469,0.87
	c0.346-0.024,0.678-0.062,1.012-0.097c0.01,0.028-0.043,0.059-0.074,0.09c-0.211,0.203-0.447,0.435-0.662,0.639
	c0.158,0.309,0.316,0.615,0.469,0.93c-0.309-0.146-0.615-0.297-0.924-0.445c-0.193,0.16-0.383,0.339-0.572,0.513
	c-0.061,0.056-0.115,0.119-0.186,0.156c0.049-0.327,0.104-0.65,0.148-0.981c-0.279-0.18-0.58-0.338-0.877-0.499
	c0.299-0.087,0.645-0.129,0.959-0.2C83.152,12.65,83.223,12.317,83.305,11.995z"/>
<path fill-rule="evenodd" clip-rule="evenodd" fill="#EDD4A3" d="M94.416,8.75c0.129,0.225,0.248,0.456,0.369,0.687
	c0.271-0.02,0.535-0.048,0.797-0.077c0.01,0.023-0.033,0.047-0.059,0.071c-0.166,0.161-0.352,0.343-0.521,0.504
	c0.125,0.243,0.25,0.484,0.369,0.733c-0.242-0.117-0.484-0.235-0.727-0.353c-0.152,0.126-0.303,0.268-0.451,0.405
	c-0.047,0.043-0.092,0.094-0.146,0.123c0.039-0.259,0.082-0.514,0.117-0.774c-0.221-0.141-0.457-0.266-0.691-0.394
	c0.236-0.068,0.508-0.102,0.756-0.157C94.295,9.268,94.352,9.005,94.416,8.75z"/>
<path fill-rule="evenodd" clip-rule="evenodd" fill="#EDD4A3" d="M105.783,12.307c0.096,0.169,0.188,0.343,0.277,0.517
	c0.205-0.015,0.402-0.036,0.602-0.058c0.006,0.017-0.025,0.035-0.045,0.053c-0.125,0.121-0.266,0.258-0.393,0.379
	c0.094,0.184,0.188,0.365,0.277,0.553c-0.184-0.088-0.363-0.178-0.547-0.266c-0.115,0.096-0.227,0.201-0.34,0.305
	c-0.035,0.033-0.068,0.07-0.109,0.093c0.029-0.194,0.061-0.386,0.088-0.583c-0.166-0.105-0.344-0.199-0.521-0.295
	c0.178-0.053,0.383-0.076,0.57-0.119C105.693,12.696,105.734,12.499,105.783,12.307z"/>
</svg>
